<mxfile host="app.diagrams.net" modified="2023-08-13T21:11:39.126Z" agent="Mozilla/5.0 (X11; Linux x86_64; rv:102.0) Gecko/20100101 Firefox/102.0" etag="jTBQQIpp1ehlDLZaZkAw" version="21.6.8" type="device" pages="2">
  <diagram name="Page-1" id="qkeDQPc-gPJnPiNThMGt">
    <mxGraphModel dx="1434" dy="753" grid="1" gridSize="10" guides="1" tooltips="1" connect="1" arrows="1" fold="1" page="1" pageScale="1" pageWidth="827" pageHeight="1169" background="#ffffff" math="0" shadow="0">
      <root>
        <mxCell id="0" />
        <mxCell id="1" parent="0" />
        <mxCell id="iD43u5IRBcwVUUV_74ay-1" value="SSS" style="rounded=1;whiteSpace=wrap;html=1;fillColor=#fff2cc;strokeColor=#d6b656;" parent="1" vertex="1">
          <mxGeometry x="230" y="80" width="120" height="60" as="geometry" />
        </mxCell>
        <mxCell id="iD43u5IRBcwVUUV_74ay-2" value="SRS" style="rounded=1;whiteSpace=wrap;html=1;fillColor=#e1d5e7;strokeColor=#9673a6;" parent="1" vertex="1">
          <mxGeometry x="390" y="170" width="120" height="60" as="geometry" />
        </mxCell>
        <mxCell id="iD43u5IRBcwVUUV_74ay-3" value="" style="endArrow=classic;html=1;rounded=1;" parent="1" source="iD43u5IRBcwVUUV_74ay-1" target="iD43u5IRBcwVUUV_74ay-2" edge="1">
          <mxGeometry width="50" height="50" relative="1" as="geometry">
            <mxPoint x="540" y="390" as="sourcePoint" />
            <mxPoint x="590" y="340" as="targetPoint" />
            <Array as="points">
              <mxPoint x="290" y="200" />
            </Array>
          </mxGeometry>
        </mxCell>
      </root>
    </mxGraphModel>
  </diagram>
  <diagram id="iG0E1skBHdEJXbCH6jKO" name="Page-2">
    <mxGraphModel dx="1434" dy="753" grid="1" gridSize="10" guides="1" tooltips="1" connect="1" arrows="1" fold="1" page="1" pageScale="1" pageWidth="827" pageHeight="1169" background="#ffffff" math="0" shadow="0">
      <root>
        <mxCell id="0" />
        <mxCell id="1" parent="0" />
        <mxCell id="8Qi-uIZG99wmoxiVNvM0-1" value="SSS" style="rounded=1;whiteSpace=wrap;html=1;fillColor=#fff2cc;strokeColor=#d6b656;" vertex="1" parent="1">
          <mxGeometry x="60" y="62" width="120" height="60" as="geometry" />
        </mxCell>
        <mxCell id="8Qi-uIZG99wmoxiVNvM0-2" value="SRS" style="rounded=1;whiteSpace=wrap;html=1;fillColor=#e1d5e7;strokeColor=#9673a6;" vertex="1" parent="1">
          <mxGeometry x="160" y="134" width="120" height="60" as="geometry" />
        </mxCell>
        <mxCell id="8Qi-uIZG99wmoxiVNvM0-3" value="" style="endArrow=classic;html=1;rounded=1;" edge="1" parent="1" source="8Qi-uIZG99wmoxiVNvM0-1">
          <mxGeometry width="50" height="50" relative="1" as="geometry">
            <mxPoint x="416" y="390" as="sourcePoint" />
            <mxPoint x="160" y="170" as="targetPoint" />
            <Array as="points">
              <mxPoint x="120" y="170" />
            </Array>
          </mxGeometry>
        </mxCell>
        <mxCell id="8Qi-uIZG99wmoxiVNvM0-4" value="&lt;div style=&quot;font-size: 19px;&quot;&gt;reqv&lt;/div&gt;" style="rounded=0;whiteSpace=wrap;html=1;fillColor=#f5f5f5;fontColor=#333333;strokeColor=#666666;perimeterSpacing=0;glass=0;shadow=1;strokeWidth=2;fontSize=19;fontStyle=1" vertex="1" parent="1">
          <mxGeometry x="400" y="50" width="210" height="160" as="geometry" />
        </mxCell>
        <mxCell id="8Qi-uIZG99wmoxiVNvM0-11" value="" style="endArrow=classic;dashed=1;html=1;dashPattern=1 3;strokeWidth=2;rounded=0;entryX=0;entryY=0.25;entryDx=0;entryDy=0;endFill=1;" edge="1" parent="1" source="8Qi-uIZG99wmoxiVNvM0-1">
          <mxGeometry width="50" height="50" relative="1" as="geometry">
            <mxPoint x="180" y="81" as="sourcePoint" />
            <mxPoint x="400" y="91" as="targetPoint" />
          </mxGeometry>
        </mxCell>
        <mxCell id="8Qi-uIZG99wmoxiVNvM0-12" value="" style="endArrow=classic;dashed=1;html=1;dashPattern=1 3;strokeWidth=2;rounded=0;exitX=1;exitY=0.617;exitDx=0;exitDy=0;exitPerimeter=0;entryX=0;entryY=0.75;entryDx=0;entryDy=0;endFill=1;" edge="1" parent="1" source="8Qi-uIZG99wmoxiVNvM0-2" target="8Qi-uIZG99wmoxiVNvM0-4">
          <mxGeometry width="50" height="50" relative="1" as="geometry">
            <mxPoint x="390" y="390" as="sourcePoint" />
            <mxPoint x="440" y="340" as="targetPoint" />
          </mxGeometry>
        </mxCell>
        <mxCell id="8Qi-uIZG99wmoxiVNvM0-15" value="&lt;i&gt;project file&lt;/i&gt;" style="rounded=1;whiteSpace=wrap;html=1;fillColor=#f5f5f5;fontColor=#333333;strokeColor=#666666;" vertex="1" parent="1">
          <mxGeometry x="497" y="290" width="120" height="60" as="geometry" />
        </mxCell>
        <mxCell id="8Qi-uIZG99wmoxiVNvM0-16" value="" style="endArrow=openThin;dashed=1;html=1;dashPattern=1 3;strokeWidth=2;rounded=0;entryX=0.75;entryY=1;entryDx=0;entryDy=0;exitX=0.5;exitY=0;exitDx=0;exitDy=0;endFill=0;" edge="1" parent="1" source="8Qi-uIZG99wmoxiVNvM0-15" target="8Qi-uIZG99wmoxiVNvM0-4">
          <mxGeometry width="50" height="50" relative="1" as="geometry">
            <mxPoint x="390" y="390" as="sourcePoint" />
            <mxPoint x="440" y="340" as="targetPoint" />
          </mxGeometry>
        </mxCell>
        <mxCell id="8Qi-uIZG99wmoxiVNvM0-17" value="" style="shape=flexArrow;endArrow=classic;html=1;rounded=0;" edge="1" parent="1">
          <mxGeometry width="50" height="50" relative="1" as="geometry">
            <mxPoint x="620" y="59.5" as="sourcePoint" />
            <mxPoint x="710" y="59.5" as="targetPoint" />
          </mxGeometry>
        </mxCell>
        <mxCell id="8Qi-uIZG99wmoxiVNvM0-18" value="&lt;div&gt;SSS&lt;/div&gt;&lt;div&gt;requirement list&lt;br&gt;&lt;/div&gt;&lt;div&gt;(yaml)&lt;br&gt;&lt;/div&gt;" style="rounded=1;whiteSpace=wrap;html=1;fillColor=#f5f5f5;fontColor=#333333;strokeColor=#666666;" vertex="1" parent="1">
          <mxGeometry x="720" y="30" width="120" height="60" as="geometry" />
        </mxCell>
        <mxCell id="8Qi-uIZG99wmoxiVNvM0-19" value="&lt;div&gt;SRS &lt;br&gt;&lt;/div&gt;&lt;div&gt;requirement list&lt;/div&gt;&lt;div&gt;(yaml)&lt;br&gt;&lt;/div&gt;" style="rounded=1;whiteSpace=wrap;html=1;fillColor=#f5f5f5;fontColor=#333333;strokeColor=#666666;" vertex="1" parent="1">
          <mxGeometry x="720" y="94" width="120" height="60" as="geometry" />
        </mxCell>
        <mxCell id="8Qi-uIZG99wmoxiVNvM0-20" value="" style="shape=flexArrow;endArrow=classic;html=1;rounded=0;" edge="1" parent="1">
          <mxGeometry width="50" height="50" relative="1" as="geometry">
            <mxPoint x="620" y="123.5" as="sourcePoint" />
            <mxPoint x="710" y="123.5" as="targetPoint" />
          </mxGeometry>
        </mxCell>
        <mxCell id="8Qi-uIZG99wmoxiVNvM0-21" value="&lt;div&gt;Traceability&lt;/div&gt;&lt;div&gt;matrices&lt;/div&gt;&lt;div&gt;(xls,csv, console)&lt;br&gt;&lt;/div&gt;" style="rounded=1;whiteSpace=wrap;html=1;fillColor=#f8cecc;strokeColor=#b85450;" vertex="1" parent="1">
          <mxGeometry x="720" y="160" width="120" height="60" as="geometry" />
        </mxCell>
        <mxCell id="8Qi-uIZG99wmoxiVNvM0-23" value="import plugins" style="rounded=1;whiteSpace=wrap;html=1;fillColor=#f5f5f5;fontColor=#333333;strokeColor=#666666;fontStyle=2" vertex="1" parent="1">
          <mxGeometry x="362" y="290" width="120" height="60" as="geometry" />
        </mxCell>
        <mxCell id="8Qi-uIZG99wmoxiVNvM0-24" value="" style="shape=flexArrow;endArrow=classic;html=1;rounded=0;" edge="1" parent="1">
          <mxGeometry width="50" height="50" relative="1" as="geometry">
            <mxPoint x="620" y="189.5" as="sourcePoint" />
            <mxPoint x="710" y="189.5" as="targetPoint" />
          </mxGeometry>
        </mxCell>
        <mxCell id="8Qi-uIZG99wmoxiVNvM0-25" value="" style="endArrow=openThin;dashed=1;html=1;dashPattern=1 3;strokeWidth=2;rounded=0;entryX=0.25;entryY=1;entryDx=0;entryDy=0;exitX=0.75;exitY=0;exitDx=0;exitDy=0;endFill=0;" edge="1" parent="1" source="8Qi-uIZG99wmoxiVNvM0-23" target="8Qi-uIZG99wmoxiVNvM0-4">
          <mxGeometry width="50" height="50" relative="1" as="geometry">
            <mxPoint x="566" y="300" as="sourcePoint" />
            <mxPoint x="568" y="200" as="targetPoint" />
          </mxGeometry>
        </mxCell>
        <mxCell id="8Qi-uIZG99wmoxiVNvM0-26" value="import" style="text;html=1;strokeColor=none;fillColor=none;align=center;verticalAlign=middle;whiteSpace=wrap;rounded=0;fontStyle=2" vertex="1" parent="1">
          <mxGeometry x="302" y="110" width="60" height="20" as="geometry" />
        </mxCell>
        <mxCell id="8Qi-uIZG99wmoxiVNvM0-27" value="export" style="text;html=1;strokeColor=none;fillColor=none;align=center;verticalAlign=middle;whiteSpace=wrap;rounded=0;fontStyle=2" vertex="1" parent="1">
          <mxGeometry x="628" y="159" width="60" height="20" as="geometry" />
        </mxCell>
      </root>
    </mxGraphModel>
  </diagram>
</mxfile>
